<svg width="32.766556" height="31.331299" viewBox="0 0 32.7666 31.3313" fill="none" xmlns="http://www.w3.org/2000/svg" xmlns:xlink="http://www.w3.org/1999/xlink">
	<desc>
			Created with Pixso.
	</desc>
	<defs/>
	<path id="Vector" d="M24.23 2.19C23.97 0.94 22.83 0 21.46 0C21.15 0 20.9 0.24 20.9 0.54C20.9 0.85 21.15 1.09 21.46 1.09C22.4 1.09 23.16 1.83 23.16 2.74C23.16 3.65 22.4 4.39 21.46 4.39C21.15 4.39 20.9 4.64 20.9 4.94C20.9 5.25 21.15 5.49 21.46 5.49C22.83 5.49 23.97 4.55 24.23 3.29L31.63 3.29L31.63 8.24L1.12 8.24L1.12 3.29L9.03 3.29L10.73 3.29C11.04 3.29 11.29 3.05 11.29 2.74C11.29 2.44 11.04 2.19 10.73 2.19L9.7 2.19C9.94 1.56 10.56 1.09 11.29 1.09C12.23 1.09 12.99 1.83 12.99 2.74C12.99 3.65 12.23 4.39 11.29 4.39C10.98 4.39 10.73 4.64 10.73 4.94C10.73 5.25 10.98 5.49 11.29 5.49C12.85 5.49 14.12 4.26 14.12 2.74C14.12 1.23 12.85 0 11.29 0C9.93 0 8.79 0.94 8.53 2.19L0 2.19L0 9.34L0 31.33L32.76 31.33L32.76 9.34L32.76 2.19L24.23 2.19ZM31.63 30.23L1.12 30.23L1.12 9.34L31.63 9.34L31.63 30.23Z" fill="#FFFFFF" fill-opacity="1.000000" fill-rule="nonzero"/>
	<path id="Vector" d="M14.68 1.09C15.62 1.09 16.38 1.83 16.38 2.74C16.38 3.65 15.62 4.39 14.68 4.39C14.37 4.39 14.12 4.64 14.12 4.94C14.12 5.25 14.37 5.49 14.68 5.49C16.24 5.49 17.51 4.26 17.51 2.74C17.51 1.23 16.24 0 14.68 0C14.37 0 14.12 0.24 14.12 0.54C14.12 0.85 14.37 1.09 14.68 1.09Z" fill="#FFFFFF" fill-opacity="1.000000" fill-rule="nonzero"/>
	<path id="Vector" d="M18.07 1.09C19.01 1.09 19.77 1.83 19.77 2.74C19.77 3.65 19.01 4.39 18.07 4.39C17.76 4.39 17.51 4.64 17.51 4.94C17.51 5.25 17.76 5.49 18.07 5.49C19.63 5.49 20.9 4.26 20.9 2.74C20.9 1.23 19.63 0 18.07 0C17.76 0 17.51 0.24 17.51 0.54C17.51 0.85 17.76 1.09 18.07 1.09Z" fill="#FFFFFF" fill-opacity="1.000000" fill-rule="nonzero"/>
	<path id="Vector" d="M5.08 13.74L17.51 13.74C17.82 13.74 18.07 13.49 18.07 13.19C18.07 12.88 17.82 12.64 17.51 12.64L5.08 12.64C4.77 12.64 4.51 12.88 4.51 13.19C4.51 13.49 4.77 13.74 5.08 13.74Z" fill="#FFFFFF" fill-opacity="1.000000" fill-rule="nonzero"/>
	<path id="Vector" d="M27.68 21.43L19.2 21.43C18.89 21.43 18.64 21.68 18.64 21.98C18.64 22.29 18.89 22.53 19.2 22.53L27.68 22.53C27.99 22.53 28.24 22.29 28.24 21.98C28.24 21.68 27.99 21.43 27.68 21.43Z" fill="#FFFFFF" fill-opacity="1.000000" fill-rule="nonzero"/>
	<path id="Vector" d="M5.08 18.13L10.73 18.13C11.04 18.13 11.29 17.89 11.29 17.58C11.29 17.28 11.04 17.04 10.73 17.04L5.08 17.04C4.77 17.04 4.51 17.28 4.51 17.58C4.51 17.89 4.77 18.13 5.08 18.13Z" fill="#FFFFFF" fill-opacity="1.000000" fill-rule="nonzero"/>
	<path id="Vector" d="M27.68 25.83L22.03 25.83C21.72 25.83 21.46 26.08 21.46 26.38C21.46 26.68 21.72 26.93 22.03 26.93L27.68 26.93C27.99 26.93 28.24 26.68 28.24 26.38C28.24 26.08 27.99 25.83 27.68 25.83Z" fill="#FFFFFF" fill-opacity="1.000000" fill-rule="nonzero"/>
	<path id="Vector" d="M15.81 17.58C15.81 17.89 16.07 18.13 16.38 18.13L24.85 18.13C25.16 18.13 25.42 17.89 25.42 17.58C25.42 17.28 25.16 17.04 24.85 17.04L16.38 17.04C16.07 17.04 15.81 17.28 15.81 17.58Z" fill="#FFFFFF" fill-opacity="1.000000" fill-rule="nonzero"/>
	<path id="Vector" d="M13.95 17.97C14.06 17.87 14.12 17.73 14.12 17.58C14.12 17.44 14.06 17.3 13.95 17.19C13.75 16.99 13.36 16.99 13.15 17.19C13.05 17.3 12.99 17.44 12.99 17.58C12.99 17.73 13.05 17.87 13.15 17.97C13.26 18.08 13.41 18.13 13.55 18.13C13.7 18.13 13.85 18.08 13.95 17.97Z" fill="#FFFFFF" fill-opacity="1.000000" fill-rule="nonzero"/>
	<path id="Vector" d="M7.34 21.98C7.34 22.29 7.59 22.53 7.9 22.53L16.38 22.53C16.69 22.53 16.94 22.29 16.94 21.98C16.94 21.68 16.69 21.43 16.38 21.43L7.9 21.43C7.59 21.43 7.34 21.68 7.34 21.98Z" fill="#FFFFFF" fill-opacity="1.000000" fill-rule="nonzero"/>
	<path id="Vector" d="M5.08 22.53C5.23 22.53 5.37 22.47 5.48 22.37C5.58 22.27 5.64 22.12 5.64 21.98C5.64 21.84 5.58 21.7 5.48 21.6C5.27 21.39 4.89 21.39 4.68 21.59C4.58 21.7 4.51 21.84 4.51 21.98C4.51 22.12 4.58 22.27 4.68 22.37C4.79 22.47 4.93 22.53 5.08 22.53Z" fill="#FFFFFF" fill-opacity="1.000000" fill-rule="nonzero"/>
	<path id="Vector" d="M27.68 18.13C27.82 18.13 27.97 18.08 28.08 17.97C28.19 17.87 28.24 17.73 28.24 17.58C28.24 17.44 28.19 17.3 28.08 17.19C27.86 16.99 27.49 16.99 27.28 17.19C27.17 17.3 27.11 17.44 27.11 17.58C27.11 17.73 27.17 17.87 27.28 17.97C27.38 18.08 27.53 18.13 27.68 18.13Z" fill="#FFFFFF" fill-opacity="1.000000" fill-rule="nonzero"/>
	<path id="Vector" d="M19.2 25.83L5.08 25.83C4.77 25.83 4.51 26.08 4.51 26.38C4.51 26.68 4.77 26.93 5.08 26.93L19.2 26.93C19.51 26.93 19.77 26.68 19.77 26.38C19.77 26.08 19.51 25.83 19.2 25.83Z" fill="#FFFFFF" fill-opacity="1.000000" fill-rule="nonzero"/>
</svg>
