<svg width="114.000000" height="28.000000" viewBox="0 0 114 28" fill="none" xmlns="http://www.w3.org/2000/svg" xmlns:xlink="http://www.w3.org/1999/xlink">
	<desc>
			Created with Pixso.
	</desc>
	<defs/>
	<rect id="Rectangle 6.7" y="12.999756" rx="0.771672" width="32.000000" height="1.543344" fill="#E3B873" fill-opacity="1.000000"/>
	<rect id="Rectangle 6.8" x="82.000000" y="12.999756" rx="0.771672" width="32.000000" height="1.543344" fill="#E3B873" fill-opacity="1.000000"/>
	<path id="Vector" d="M67.4 21.14C66.82 20.73 66.15 20.51 65.47 20.47C62.91 18.8 61.24 17.54 60.26 16.57L57.26 13.57L59.08 11.53C59.43 11.72 59.8 11.85 60.17 11.9C60.45 11.95 60.64 11.95 60.82 11.95C61.2 11.95 61.29 11.95 61.66 12.28C61.48 12.42 61.38 12.65 61.38 12.88C61.38 13.12 61.48 13.4 61.66 13.58L63.3 15.21C63.53 15.49 63.9 15.63 64.27 15.63C64.65 15.63 65.02 15.49 65.25 15.17L68.57 11.86C68.85 11.62 68.99 11.25 68.99 10.88C68.99 10.5 68.85 10.18 68.57 9.9L66.93 8.26C66.75 8.08 66.51 7.98 66.28 7.98C66.05 7.98 65.81 8.12 65.63 8.26C65.25 7.94 65.25 7.85 65.25 7.47C65.25 7.29 65.25 7.05 65.16 6.77C65.07 6.12 64.74 5.47 64.23 4.95L62.55 3.27C61.57 2.29 61.1 1.83 59.84 1.27C57.14 0.01 54.39 0.24 50.38 2.06C50.14 2.15 50.05 2.34 50.1 2.57C50.14 2.81 50.33 2.95 50.56 2.95L51.17 2.95C53.22 2.95 54.29 2.95 56.16 4.81C56.98 5.63 57 6.88 56.27 7.8C56.17 7.82 56.09 7.86 56.02 7.94L53.95 10.25L52.38 8.68C50.66 6.96 49.45 5.33 48.52 3.52C48.47 2.6 48.1 1.74 47.44 1.08C46.64 0.29 45.52 -0.08 44.4 0.01C44.26 0.06 44.13 0.15 44.08 0.24C43.99 0.38 43.99 0.57 44.08 0.71L45.38 3.04C45.1 3.65 44.45 4.02 43.8 3.97L42.45 1.73C42.4 1.59 42.21 1.5 42.07 1.5C41.93 1.45 41.79 1.55 41.7 1.69C40.58 3.37 41 5.61 42.68 6.77C43.26 7.19 43.91 7.42 44.57 7.46C44.58 7.47 44.58 7.47 44.59 7.47C46.41 8.4 48.04 9.62 49.77 11.34L51.47 13.01L41.56 24.08C41.19 24.45 41 24.96 41 25.48C41 25.99 41.19 26.46 41.56 26.83L42.21 27.48C42.59 27.81 43.05 28 43.52 28C43.99 28 44.5 27.81 44.87 27.44L54.78 16.35L57.65 19.23C58.63 20.2 59.89 21.93 61.56 24.44C61.63 25.34 61.99 26.18 62.64 26.83C63.34 27.53 64.27 27.9 65.25 27.9C65.39 27.9 65.53 27.9 65.63 27.9C65.77 27.9 65.91 27.81 66 27.67C66.09 27.53 66.09 27.34 66 27.2L64.65 24.92C64.97 24.31 65.58 23.94 66.28 23.98L67.59 26.22C67.63 26.36 67.82 26.46 67.96 26.46C68.15 26.41 68.29 26.36 68.38 26.22C69.5 24.54 69.03 22.3 67.4 21.14ZM56.77 4.07C55.27 2.62 54.15 2.15 52.89 2.01C55.55 1.18 57.51 1.22 59.47 2.11C60.59 2.57 60.96 2.95 61.94 3.93L63.62 5.61C64 5.98 64.23 6.45 64.27 6.91C64.32 7.15 64.32 7.33 64.32 7.47C64.32 7.98 64.37 8.36 64.93 8.92C65.11 9.1 65.39 9.2 65.63 9.2C65.91 9.2 66.14 9.1 66.28 8.92L67.91 10.55C68.01 10.64 68.05 10.74 68.05 10.88C68.05 11.02 68.01 11.11 67.91 11.2L64.6 14.52C64.41 14.7 64.14 14.7 63.95 14.52L62.32 12.88C62.5 12.74 62.6 12.51 62.55 12.23C62.55 12 62.46 11.72 62.27 11.53C61.71 10.97 61.34 10.92 60.82 10.92C60.68 10.92 60.5 10.92 60.26 10.88C59.75 10.83 59.33 10.6 58.96 10.22L56.95 8.22C57.98 6.96 57.88 5.19 56.77 4.07ZM42.12 2.95L43.1 4.63C43.19 4.77 43.33 4.86 43.47 4.86L43.71 4.86C44.78 4.91 45.76 4.35 46.22 3.41L46.32 3.18C46.41 3.04 46.41 2.9 46.32 2.76L45.29 0.99C45.85 1.08 46.36 1.36 46.78 1.78C47.26 2.3 47.57 2.96 47.59 3.67C47.58 3.7 47.58 3.74 47.58 3.79C47.58 4 47.55 4.21 47.5 4.42C47.33 5.09 46.9 5.68 46.32 6.07C45.38 6.68 44.13 6.68 43.19 6.03C42.21 5.33 41.79 4.07 42.12 2.95ZM50.42 10.69C49.02 9.24 47.62 8.12 46.13 7.24C46.36 7.15 46.64 7.01 46.88 6.87C47.58 6.4 48.04 5.79 48.32 5.05C49.21 6.54 50.33 7.94 51.73 9.34L53.33 10.94L52.07 12.34L50.42 10.69ZM44.22 26.74C43.85 27.11 43.24 27.16 42.87 26.78L42.21 26.18C42.03 25.99 41.93 25.76 41.93 25.52C41.93 25.24 42.03 25.01 42.26 24.78L42.52 24.48L43.19 25.15C43.29 25.24 43.38 25.29 43.52 25.29C43.66 25.29 43.75 25.24 43.85 25.15C44.03 24.96 44.03 24.68 43.85 24.5L43.14 23.79L43.76 23.1L44.5 23.84C44.59 23.94 44.68 23.98 44.82 23.98C44.96 23.98 45.06 23.94 45.15 23.84C45.34 23.66 45.34 23.38 45.15 23.19L44.37 22.41L56.37 8.99L58.33 10.95L56.4 13.1C56.35 13.12 56.3 13.16 56.25 13.21L54.39 15.31C54.33 15.36 54.3 15.42 54.27 15.49L44.22 26.74ZM55.41 15.64L56.69 14.21L59.7 17.22C60.54 18.11 61.99 19.23 64.09 20.63C63.81 20.72 63.53 20.86 63.25 21.05C62.67 21.41 62.26 21.91 61.97 22.46C61.97 22.47 61.97 22.48 61.96 22.49C61.95 22.52 61.93 22.56 61.91 22.59C61.89 22.64 61.87 22.68 61.85 22.73C61.83 22.77 61.82 22.8 61.8 22.83C61.8 22.84 61.8 22.84 61.8 22.85C61.78 22.88 61.77 22.92 61.76 22.96C61.49 22.57 61.24 22.2 60.99 21.86L61.62 21.23C61.8 21.05 61.8 20.77 61.62 20.58C61.43 20.39 61.15 20.39 60.96 20.58L60.44 21.1C60.25 20.84 60.06 20.59 59.88 20.35L60.31 19.93C60.5 19.74 60.5 19.46 60.31 19.27C60.12 19.09 59.84 19.09 59.66 19.27L59.3 19.63C58.96 19.22 58.64 18.86 58.35 18.57L55.41 15.64ZM67.91 24.96L66.93 23.28C66.84 23.14 66.7 23.05 66.56 23.05L66.33 23.05C65.25 22.96 64.27 23.56 63.81 24.5L63.72 24.73C63.62 24.87 63.62 25.01 63.72 25.15L64.74 26.92C64.18 26.83 63.67 26.55 63.25 26.13C62.78 25.62 62.47 24.97 62.44 24.28C62.45 24.25 62.46 24.21 62.46 24.17C62.46 23.58 62.64 23.03 62.97 22.56C63.17 22.28 63.42 22.03 63.72 21.84C64.18 21.51 64.69 21.37 65.25 21.37C65.81 21.37 66.37 21.56 66.84 21.88C67.82 22.58 68.24 23.84 67.91 24.96Z" fill="#E3B873" fill-opacity="1.000000" fill-rule="nonzero"/>
</svg>
