<svg width="196.000000" height="66.792297" viewBox="0 0 196 66.7923" fill="none" xmlns="http://www.w3.org/2000/svg" xmlns:xlink="http://www.w3.org/1999/xlink">
	<desc>
			Created with Pixso.
	</desc>
	<defs/>
	<path id="online control" d="M13.01 17.44Q14.48 18.29 16.45 18.29Q18.4 18.29 19.86 17.45Q19.87 17.45 19.88 17.44Q20.31 17.19 20.69 16.87Q21.58 16.11 22.15 14.96Q22.95 13.32 22.95 10.99Q22.95 8.67 22.15 7.04Q21.58 5.87 20.67 5.11Q20.3 4.79 19.88 4.55Q19.86 4.54 19.84 4.53Q18.38 3.69 16.45 3.69Q14.5 3.69 13.03 4.54Q13.02 4.54 13.01 4.55Q12.59 4.79 12.22 5.11Q11.31 5.87 10.74 7.04Q9.94 8.67 9.94 10.99Q9.94 13.32 10.74 14.96Q11.31 16.11 12.2 16.87Q12.58 17.19 13.01 17.44ZM94.71 17.07Q96.38 18.29 98.95 18.29Q99.89 18.29 100.72 17.97Q101 17.86 101.27 17.71Q101.94 17.33 102.43 16.79Q102.71 16.49 102.93 16.12Q103.29 15.55 103.44 14.93Q103.55 14.48 103.55 14L103.05 14Q103.05 14.33 102.98 14.66Q102.86 15.28 102.52 15.86Q102.21 16.37 101.79 16.76Q101.49 17.04 101.13 17.27Q100.53 17.64 99.88 17.75Q99.62 17.79 99.35 17.79Q98.63 17.79 98.03 17.52Q97.21 17.14 96.64 16.23Q95.64 14.66 95.64 10.99Q95.64 7.39 96.55 5.8Q97.26 4.56 98.23 4.28Q98.53 4.2 98.84 4.2Q99.45 4.2 99.97 4.42Q100.24 4.53 100.47 4.7Q100.7 4.86 100.9 5.04Q101.34 5.43 101.67 5.95Q102.19 6.74 102.45 7.7L103.25 7.7L103.25 3.89L102.74 3.89Q102.71 3.91 102.34 4.18Q101.99 4.47 101.65 5Q101.21 4.6 100.77 4.36Q99.6 3.69 98.47 3.69Q96.76 3.69 95.43 4.39Q95.29 4.47 95.16 4.55Q94.84 4.74 94.55 4.97Q93.55 5.77 92.93 7.05Q92.14 8.69 92.14 10.99Q92.14 14.37 93.82 16.26Q93.88 16.33 93.95 16.39Q94.3 16.77 94.71 17.07ZM107.82 17.44Q109.28 18.29 111.25 18.29Q113.2 18.29 114.66 17.45L114.68 17.44Q115.11 17.19 115.49 16.87Q116.38 16.11 116.95 14.96Q117.75 13.32 117.75 10.99Q117.75 8.67 116.95 7.04Q116.38 5.87 115.47 5.11Q115.1 4.79 114.68 4.55Q114.66 4.54 114.64 4.53Q113.18 3.69 111.25 3.69Q109.3 3.69 107.83 4.54Q107.82 4.54 107.82 4.55Q107.39 4.79 107.02 5.11Q106.11 5.87 105.54 7.04Q104.74 8.67 104.74 10.99Q104.74 13.32 105.54 14.96Q106.11 16.11 107 16.87Q107.38 17.19 107.82 17.44ZM163.92 17.44Q165.38 18.29 167.35 18.29Q169.3 18.29 170.76 17.45L170.78 17.44Q171.21 17.19 171.59 16.87Q172.48 16.11 173.05 14.96Q173.85 13.32 173.85 10.99Q173.85 8.67 173.05 7.04Q172.48 5.87 171.57 5.11Q171.2 4.79 170.78 4.55Q170.76 4.54 170.74 4.53Q169.28 3.69 167.35 3.69Q165.4 3.69 163.93 4.54L163.92 4.55Q163.49 4.79 163.12 5.11Q162.21 5.87 161.64 7.04Q160.84 8.67 160.84 10.99Q160.84 13.32 161.64 14.96Q162.21 16.11 163.1 16.87Q163.48 17.19 163.92 17.44ZM26.64 17.1L26.64 7.39L35.94 18.29L36.55 18.29L36.55 4.89L38.15 4.29L38.15 4L34.34 4L34.34 4.29L35.94 4.89L35.94 12.9L29.54 5.4Q29.01 4.75 28.41 4.38Q27.81 4 26.75 4L24.65 4L24.65 4.29L26.05 4.69L26.05 17.1L24.45 17.7L24.45 18L28.24 18L28.24 17.7L26.64 17.1ZM40.65 17.39L39.45 17.7L39.45 18L50.14 18L50.14 14.4L49.54 14.4Q49.16 14.69 48.88 15.15Q48.57 15.69 48.41 16.27Q48.24 16.86 48.24 17.5L43.94 17.5L43.94 4.6L45.14 4.29L45.14 4L39.45 4L39.45 4.29L40.65 4.6L40.65 17.39ZM51.65 17.7L51.65 18L57.34 18L57.34 17.7L56.14 17.39L56.14 4.6L57.34 4.29L57.34 4L51.65 4L51.65 4.29L52.85 4.6L52.85 17.39L51.65 17.7ZM60.94 17.1L60.94 7.39L70.24 18.29L70.85 18.29L70.85 4.89L72.45 4.29L72.45 4L68.64 4L68.64 4.29L70.24 4.89L70.24 12.9L63.84 5.4Q63.31 4.75 62.71 4.38Q62.11 4 61.05 4L58.95 4L58.95 4.29L60.35 4.69L60.35 17.1L58.75 17.7L58.75 18L62.54 18L62.54 17.7L60.94 17.1ZM74.95 17.39L73.75 17.7L73.75 18L84.84 18L84.84 14.4L84.24 14.4Q83.86 14.69 83.58 15.15Q83.27 15.69 83.11 16.27Q82.95 16.86 82.95 17.5L78.24 17.5L78.24 11.3L80.54 11.3Q80.62 11.71 80.77 12.1Q80.89 12.42 81.07 12.72Q81.23 13.01 81.45 13.29L82.05 13.29L82.05 8.8L81.45 8.8Q81.23 9.07 81.07 9.38Q80.91 9.64 80.8 9.92Q80.63 10.34 80.54 10.79L78.24 10.79L78.24 4.49L82.54 4.49Q82.54 5.14 82.71 5.74Q82.87 6.31 83.18 6.83Q83.46 7.3 83.84 7.59L84.44 7.59L84.44 4L73.75 4L73.75 4.29L74.95 4.6L74.95 17.39ZM121.44 17.1L121.44 7.39L130.75 18.29L131.35 18.29L131.35 4.89L132.95 4.29L132.95 4L129.14 4L129.14 4.29L130.75 4.89L130.75 12.9L124.34 5.4Q123.81 4.75 123.21 4.38Q122.61 4 121.55 4L119.45 4L119.45 4.29L120.85 4.69L120.85 17.1L119.25 17.7L119.25 18L123.04 18L123.04 17.7L121.44 17.1ZM138.15 17.39L136.95 17.7L136.95 18L142.64 18L142.64 17.7L141.44 17.39L141.44 4.49L143.74 4.49Q143.74 5.13 143.91 5.73Q144.07 6.3 144.39 6.83Q144.67 7.3 145.05 7.59L145.65 7.59L145.65 4L133.94 4L133.94 7.59L134.54 7.59Q134.91 7.3 135.18 6.83Q135.66 6.02 135.8 5.16Q135.85 4.83 135.85 4.49L138.15 4.49L138.15 17.39ZM148.35 17.39L147.15 17.7L147.15 18L153.04 18L153.04 17.7L151.64 17.39L151.64 11.79L152.95 11.79L154.94 16.3Q155.41 17.33 156.19 17.73Q156.7 18 157.35 18L160.14 18L160.14 17.7L159.14 17.39L157.35 13.4Q157.21 13.08 157 12.82Q156.46 12.13 155.45 11.81Q154.89 11.63 154.14 11.59L154.14 11.5Q155.26 11.48 156.27 11.13Q156.38 11.1 156.49 11.06Q157.35 10.74 157.95 10.15Q158.08 10.03 158.19 9.9Q158.26 9.81 158.33 9.72Q158.85 8.99 158.85 7.9Q158.85 6.95 158.45 6.22Q158.08 5.53 157.35 5.03Q155.85 4 152.44 4L147.15 4L147.15 4.29L148.35 4.6L148.35 17.39ZM176.95 17.39L175.75 17.7L175.75 18L186.44 18L186.44 14.4L185.84 14.4Q185.46 14.69 185.18 15.15Q184.87 15.69 184.71 16.27Q184.55 16.86 184.55 17.5L180.24 17.5L180.24 4.6L181.44 4.29L181.44 4L175.75 4L175.75 4.29L176.95 4.6L176.95 17.39ZM16.73 17.87Q16.59 17.9 16.45 17.9Q16.3 17.9 16.16 17.87Q15.54 17.77 14.99 17.24Q14.32 16.57 13.88 15.04Q13.44 13.49 13.44 10.99Q13.44 8.49 13.88 6.95Q14.32 5.42 14.99 4.76Q15.54 4.22 16.16 4.12Q16.3 4.09 16.45 4.09Q16.59 4.09 16.73 4.12Q17.35 4.22 17.89 4.76Q18.57 5.42 19.01 6.95Q19.45 8.49 19.45 10.99Q19.45 13.49 19.01 15.04Q18.57 16.57 17.89 17.24Q17.35 17.77 16.73 17.87ZM111.53 17.87Q111.39 17.9 111.25 17.9Q111.1 17.9 110.96 17.87Q110.34 17.77 109.79 17.24Q109.12 16.57 108.68 15.04Q108.24 13.49 108.24 10.99Q108.24 8.49 108.68 6.95Q109.12 5.42 109.79 4.76Q110.34 4.22 110.96 4.12Q111.1 4.09 111.25 4.09Q111.39 4.09 111.53 4.12Q112.15 4.22 112.69 4.76Q113.37 5.42 113.81 6.95Q114.25 8.49 114.25 10.99Q114.25 13.49 113.81 15.04Q113.37 16.57 112.69 17.24Q112.15 17.77 111.53 17.87ZM167.63 17.87Q167.49 17.9 167.35 17.9Q167.2 17.9 167.06 17.87Q166.44 17.77 165.89 17.24Q165.22 16.57 164.78 15.04Q164.34 13.49 164.34 10.99Q164.34 8.49 164.78 6.95Q165.22 5.42 165.89 4.76Q166.44 4.22 167.06 4.12Q167.2 4.09 167.35 4.09Q167.49 4.09 167.63 4.12Q168.25 4.22 168.79 4.76Q169.47 5.42 169.91 6.95Q170.35 8.49 170.35 10.99Q170.35 13.49 169.91 15.04Q169.47 16.57 168.79 17.24Q168.25 17.77 167.63 17.87ZM154.19 10.81Q153.49 11.3 152.44 11.3L151.64 11.3L151.64 4.49L152.44 4.49Q153.48 4.49 154.18 4.97Q154.44 5.15 154.65 5.38Q155.45 6.26 155.45 7.9Q155.45 9.53 154.65 10.42Q154.44 10.64 154.19 10.81Z" fill="#FFFFFF" fill-opacity="1.000000" fill-rule="evenodd"/>
	<rect id="Rectangle 6.7" x="41.000488" y="51.812012" rx="0.771672" width="32.000000" height="1.543344" fill="#E3B873" fill-opacity="1.000000"/>
	<rect id="Rectangle 6.8" x="123.000488" y="51.812012" rx="0.771672" width="32.000000" height="1.543344" fill="#E3B873" fill-opacity="1.000000"/>
	<path id="Vector" d="M114.85 47.76L90.73 38.82C90.42 38.71 90.07 38.87 89.96 39.18C89.96 39.18 89.96 39.18 89.96 39.18L87.29 46.45C87.18 46.75 87.33 47.1 87.64 47.21L87.64 47.21L90.44 48.24L89.82 49.92C89.71 50.22 89.87 50.57 90.18 50.68L95.77 52.73L95.36 53.85C94.99 54.85 95.33 55.98 96.21 56.6L96.21 59.64L88.19 59.64C87.8 58.75 87.01 58.11 86.06 57.91L86.06 56.66C86.06 56.33 85.8 56.06 85.47 56.06L83.06 56.06C82.74 56.06 82.47 56.33 82.47 56.66L82.47 66.19C82.47 66.52 82.74 66.79 83.06 66.79L85.47 66.79C85.8 66.79 86.06 66.52 86.06 66.19L86.06 64.94C87.01 64.74 87.8 64.1 88.19 63.21L96.21 63.21L96.21 63.81C96.21 64.8 97.01 65.6 98 65.6C98.98 65.6 99.78 64.8 99.78 63.81L99.78 57.21C100.32 56.94 100.74 56.47 100.95 55.91L101.36 54.79L106.4 56.64C106.46 56.66 106.53 56.67 106.6 56.67C106.85 56.67 107.07 56.52 107.16 56.28L107.38 55.67C109.32 56.04 111.19 54.76 111.55 52.82C111.69 52.11 111.6 51.37 111.3 50.7L114.91 48.85C115.21 48.7 115.32 48.34 115.17 48.05C115.11 47.91 114.99 47.81 114.85 47.76L114.85 47.76ZM97.4 57.14L97.89 57.32C98.12 57.4 98.35 57.45 98.59 57.46L98.59 59.64L97.4 59.64L97.4 57.14ZM84.87 65.6L83.66 65.6L83.66 57.26L84.87 57.26L84.87 65.6ZM87.25 62.02C87.25 62.78 86.78 63.45 86.06 63.71L86.06 59.14C86.78 59.4 87.25 60.07 87.25 60.83L87.25 62.02ZM88.46 60.83L98.59 60.83L98.59 62.02L88.46 62.02L88.46 60.83ZM98 64.4C97.67 64.4 97.4 64.14 97.4 63.81L97.4 63.21L98.59 63.21L98.59 63.81C98.59 64.14 98.32 64.4 98 64.4ZM100.24 54.38L99.83 55.5C99.61 56.11 98.92 56.43 98.3 56.2L97.18 55.79C96.57 55.57 96.25 54.88 96.48 54.26C96.48 54.26 96.48 54.26 96.48 54.26L96.89 53.15L99.91 54.25L100.24 54.38ZM106.25 55.31L91.15 49.77L91.56 48.65L100.51 51.94C100.72 52.01 100.96 51.96 101.12 51.81L102.79 50.24L107.48 51.96L106.25 55.31ZM110.28 52.99C109.9 54 108.88 54.64 107.8 54.53L108.72 52.03L110.23 51.25C110.46 51.8 110.48 52.42 110.28 52.99ZM108.26 50.93C108.23 50.93 108.2 50.93 108.17 50.94L102.86 48.99C102.65 48.91 102.41 48.96 102.25 49.12L100.57 50.69L88.61 46.3L90.87 40.15L113.16 48.41L108.26 50.93Z" fill="#E3B873" fill-opacity="1.000000" fill-rule="nonzero"/>
	<path id="Vector 2" d="M94.12 46.7L93.6 48.12M96.41 47.54L95.89 48.96M98.64 48.36L98.11 49.78" stroke="#E3B873" stroke-opacity="1.000000" stroke-width="1.000000" stroke-linecap="round"/>
</svg>
